# xmcd
#
# Track frame offsets: 
#        182
#        13035
#        25757
#        38390
#        51057
#        64697
#        74512
#        84942
#        98907
#        109802
#        122567
#        135145
#
# Disc length: 1931 seconds
#
# Revision: 2
# Processed by: cddbd v1.5PL3 Copyright (c) Steve Scherf et al.
# Submitted via: ExactAudioCopy v0.95a4
#
DISCID=8c07890c
DTITLE=James Brown - The Essential Collection cd1
DYEAR=1995
DGENRE=Soul
TTITLE0=Just You And Me, Darling
TTITLE1=I Love You, Yes I Do
TTITLE2=I Don't Mind
TTITLE3=Come Over Here
TTITLE4=The Bells
TTITLE5=Love Don't Love Nobody
TTITLE6=Dancin' Little Thing
TTITLE7=Lost Someone
TTITLE8=And I Do Just What I Want
TTITLE9=So Long
TTITLE10=You Don't Have To Go
TTITLE11=Tell Me What Your Gonna Do
EXTD=
EXTT0=
EXTT1=
EXTT2=
EXTT3=
EXTT4=
EXTT5=
EXTT6=
EXTT7=
EXTT8=
EXTT9=
EXTT10=
EXTT11=
PLAYORDER=
